M48
; DRILL file {KiCad (5.1.10)-1} date 05/15/21 16:43:07
; FORMAT={-:-/ absolute / inch / decimal}
; #@! TF.CreationDate,2021-05-15T16:43:07+02:00
; #@! TF.GenerationSoftware,Kicad,Pcbnew,(5.1.10)-1
; #@! TF.FileFunction,Plated,1,2,PTH
FMAT,2
INCH
T1C0.0300
T2C0.0315
T3C0.0374
T4C0.0394
T5C0.0433
T6C0.1417
%
G90
G05
T1
X0.9142Y-2.6181
X0.9142Y-4.1929
X1.6142Y-2.6181
X1.6142Y-4.1929
X1.8724Y-2.8543
X1.8724Y-2.9724
X1.8724Y-3.2874
X1.8724Y-3.4055
X2.7724Y-2.8543
X2.7724Y-3.4055
X3.1496Y-3.9961
X3.3071Y-3.937
X3.3071Y-4.1181
X3.4646Y-3.9961
X3.7244Y-4.1732
X3.7244Y-4.2835
X3.9213Y-4.1732
X3.9213Y-4.2835
X4.1181Y-4.1732
X4.1181Y-4.2835
X4.315Y-4.1732
X4.315Y-4.2835
X4.9803Y-3.4055
X4.9803Y-3.5055
X4.9803Y-3.6055
X4.9803Y-3.7055
X4.9803Y-3.8055
X4.9803Y-3.9055
X5.8268Y-3.5055
X5.8268Y-3.6055
X5.8268Y-3.7055
X5.8268Y-3.8055
X5.8268Y-3.9055
X5.8268Y-4.0055
T2
X0.9142Y-2.0866
X0.9142Y-2.3866
X1.0142Y-2.0866
X1.0142Y-2.3866
X1.1142Y-2.0866
X1.1142Y-2.3866
X1.2142Y-2.0866
X1.2142Y-2.3866
X1.3142Y-2.0866
X1.3142Y-2.3866
X1.4142Y-2.0866
X1.4142Y-2.3866
X1.5142Y-2.0866
X1.5142Y-2.3866
X1.6142Y-2.0866
X1.6142Y-2.3866
T3
X5.4921Y-1.811
X5.5906Y-1.811
X5.689Y-1.811
X5.7874Y-1.811
T4
X1.0039Y-1.811
X1.1024Y-1.811
X1.437Y-1.811
X1.5354Y-1.811
X2.0866Y-4.1535
X2.185Y-4.1535
X3.9764Y-3.2283
X4.1685Y-2.8268
X4.2551Y-2.7768
X4.3417Y-2.7268
X4.4283Y-2.6768
X4.4685Y-3.3465
X4.5149Y-2.6268
X4.5551Y-3.2965
X4.6015Y-2.5768
X4.6417Y-3.2465
X4.6881Y-2.5268
X4.7283Y-3.1965
X4.7747Y-2.4768
X4.8149Y-3.1465
X4.8613Y-2.4268
X4.9015Y-3.0965
X4.9479Y-2.3768
X4.9881Y-3.0465
X5.0345Y-2.3268
X5.0747Y-2.9965
X5.1211Y-2.2768
X5.1613Y-2.9465
X5.2077Y-2.2268
X5.2479Y-2.8965
X5.2943Y-2.1768
X5.3345Y-2.8465
X5.3809Y-2.1268
X5.4211Y-2.7965
X5.5077Y-2.7465
X5.5943Y-2.6965
X5.6809Y-2.6465
T5
X5.6102Y-2.874
X5.6102Y-3.1299
X5.7874Y-2.874
X5.7874Y-3.1299
T6
X2.7165Y-3.8189
X4.0551Y-3.8189
T0
M30
