%TF.GenerationSoftware,KiCad,Pcbnew,(5.1.10)-1*%
%TF.CreationDate,2021-05-15T16:46:54+02:00*%
%TF.ProjectId,fetap,66657461-702e-46b6-9963-61645f706362,rev?*%
%TF.SameCoordinates,Original*%
%TF.FileFunction,Soldermask,Bot*%
%TF.FilePolarity,Negative*%
%FSLAX46Y46*%
G04 Gerber Fmt 4.6, Leading zero omitted, Abs format (unit mm)*
G04 Created by KiCad (PCBNEW (5.1.10)-1) date 2021-05-15 16:46:54*
%MOMM*%
%LPD*%
G01*
G04 APERTURE LIST*
%ADD10C,2.000000*%
%ADD11C,0.100000*%
%ADD12O,1.700000X1.950000*%
%ADD13C,1.524000*%
%ADD14O,1.700000X2.000000*%
%ADD15O,1.600000X1.600000*%
%ADD16R,1.600000X1.600000*%
G04 APERTURE END LIST*
D10*
%TO.C,SW1*%
X142500000Y-73000000D03*
X147000000Y-73000000D03*
X142500000Y-79500000D03*
X147000000Y-79500000D03*
%TD*%
%TO.C,Arduino Nano*%
G36*
G01*
X137075863Y-54714593D02*
X137075863Y-54714593D01*
G75*
G02*
X135983043Y-54421773I-400000J692820D01*
G01*
X135983043Y-54421773D01*
G75*
G02*
X136275863Y-53328953I692820J400000D01*
G01*
X136275863Y-53328953D01*
G75*
G02*
X137368683Y-53621773I400000J-692820D01*
G01*
X137368683Y-53621773D01*
G75*
G02*
X137075863Y-54714593I-692820J-400000D01*
G01*
G37*
G36*
G01*
X144695863Y-67912820D02*
X144695863Y-67912820D01*
G75*
G02*
X143603043Y-67620000I-400000J692820D01*
G01*
X143603043Y-67620000D01*
G75*
G02*
X143895863Y-66527180I692820J400000D01*
G01*
X143895863Y-66527180D01*
G75*
G02*
X144988683Y-66820000I400000J-692820D01*
G01*
X144988683Y-66820000D01*
G75*
G02*
X144695863Y-67912820I-692820J-400000D01*
G01*
G37*
G36*
G01*
X106280000Y-72494593D02*
X106280000Y-72494593D01*
G75*
G02*
X105187180Y-72201773I-400000J692820D01*
G01*
X105187180Y-72201773D01*
G75*
G02*
X105480000Y-71108953I692820J400000D01*
G01*
X105480000Y-71108953D01*
G75*
G02*
X106572820Y-71401773I400000J-692820D01*
G01*
X106572820Y-71401773D01*
G75*
G02*
X106280000Y-72494593I-692820J-400000D01*
G01*
G37*
G36*
G01*
X142496159Y-69182820D02*
X142496159Y-69182820D01*
G75*
G02*
X141403339Y-68890000I-400000J692820D01*
G01*
X141403339Y-68890000D01*
G75*
G02*
X141696159Y-67797180I692820J400000D01*
G01*
X141696159Y-67797180D01*
G75*
G02*
X142788979Y-68090000I400000J-692820D01*
G01*
X142788979Y-68090000D01*
G75*
G02*
X142496159Y-69182820I-692820J-400000D01*
G01*
G37*
G36*
G01*
X108479705Y-71224593D02*
X108479705Y-71224593D01*
G75*
G02*
X107386885Y-70931773I-400000J692820D01*
G01*
X107386885Y-70931773D01*
G75*
G02*
X107679705Y-69838953I692820J400000D01*
G01*
X107679705Y-69838953D01*
G75*
G02*
X108772525Y-70131773I400000J-692820D01*
G01*
X108772525Y-70131773D01*
G75*
G02*
X108479705Y-71224593I-692820J-400000D01*
G01*
G37*
G36*
G01*
X140296454Y-70452820D02*
X140296454Y-70452820D01*
G75*
G02*
X139203634Y-70160000I-400000J692820D01*
G01*
X139203634Y-70160000D01*
G75*
G02*
X139496454Y-69067180I692820J400000D01*
G01*
X139496454Y-69067180D01*
G75*
G02*
X140589274Y-69360000I400000J-692820D01*
G01*
X140589274Y-69360000D01*
G75*
G02*
X140296454Y-70452820I-692820J-400000D01*
G01*
G37*
G36*
G01*
X110679409Y-69954593D02*
X110679409Y-69954593D01*
G75*
G02*
X109586589Y-69661773I-400000J692820D01*
G01*
X109586589Y-69661773D01*
G75*
G02*
X109879409Y-68568953I692820J400000D01*
G01*
X109879409Y-68568953D01*
G75*
G02*
X110972229Y-68861773I400000J-692820D01*
G01*
X110972229Y-68861773D01*
G75*
G02*
X110679409Y-69954593I-692820J-400000D01*
G01*
G37*
G36*
G01*
X138096750Y-71722820D02*
X138096750Y-71722820D01*
G75*
G02*
X137003930Y-71430000I-400000J692820D01*
G01*
X137003930Y-71430000D01*
G75*
G02*
X137296750Y-70337180I692820J400000D01*
G01*
X137296750Y-70337180D01*
G75*
G02*
X138389570Y-70630000I400000J-692820D01*
G01*
X138389570Y-70630000D01*
G75*
G02*
X138096750Y-71722820I-692820J-400000D01*
G01*
G37*
G36*
G01*
X112879114Y-68684593D02*
X112879114Y-68684593D01*
G75*
G02*
X111786294Y-68391773I-400000J692820D01*
G01*
X111786294Y-68391773D01*
G75*
G02*
X112079114Y-67298953I692820J400000D01*
G01*
X112079114Y-67298953D01*
G75*
G02*
X113171934Y-67591773I400000J-692820D01*
G01*
X113171934Y-67591773D01*
G75*
G02*
X112879114Y-68684593I-692820J-400000D01*
G01*
G37*
G36*
G01*
X135897045Y-72992820D02*
X135897045Y-72992820D01*
G75*
G02*
X134804225Y-72700000I-400000J692820D01*
G01*
X134804225Y-72700000D01*
G75*
G02*
X135097045Y-71607180I692820J400000D01*
G01*
X135097045Y-71607180D01*
G75*
G02*
X136189865Y-71900000I400000J-692820D01*
G01*
X136189865Y-71900000D01*
G75*
G02*
X135897045Y-72992820I-692820J-400000D01*
G01*
G37*
G36*
G01*
X115078818Y-67414593D02*
X115078818Y-67414593D01*
G75*
G02*
X113985998Y-67121773I-400000J692820D01*
G01*
X113985998Y-67121773D01*
G75*
G02*
X114278818Y-66028953I692820J400000D01*
G01*
X114278818Y-66028953D01*
G75*
G02*
X115371638Y-66321773I400000J-692820D01*
G01*
X115371638Y-66321773D01*
G75*
G02*
X115078818Y-67414593I-692820J-400000D01*
G01*
G37*
G36*
G01*
X133697341Y-74262820D02*
X133697341Y-74262820D01*
G75*
G02*
X132604521Y-73970000I-400000J692820D01*
G01*
X132604521Y-73970000D01*
G75*
G02*
X132897341Y-72877180I692820J400000D01*
G01*
X132897341Y-72877180D01*
G75*
G02*
X133990161Y-73170000I400000J-692820D01*
G01*
X133990161Y-73170000D01*
G75*
G02*
X133697341Y-74262820I-692820J-400000D01*
G01*
G37*
G36*
G01*
X117278523Y-66144593D02*
X117278523Y-66144593D01*
G75*
G02*
X116185703Y-65851773I-400000J692820D01*
G01*
X116185703Y-65851773D01*
G75*
G02*
X116478523Y-64758953I692820J400000D01*
G01*
X116478523Y-64758953D01*
G75*
G02*
X117571343Y-65051773I400000J-692820D01*
G01*
X117571343Y-65051773D01*
G75*
G02*
X117278523Y-66144593I-692820J-400000D01*
G01*
G37*
G36*
G01*
X131497636Y-75532820D02*
X131497636Y-75532820D01*
G75*
G02*
X130404816Y-75240000I-400000J692820D01*
G01*
X130404816Y-75240000D01*
G75*
G02*
X130697636Y-74147180I692820J400000D01*
G01*
X130697636Y-74147180D01*
G75*
G02*
X131790456Y-74440000I400000J-692820D01*
G01*
X131790456Y-74440000D01*
G75*
G02*
X131497636Y-75532820I-692820J-400000D01*
G01*
G37*
G36*
G01*
X119478227Y-64874593D02*
X119478227Y-64874593D01*
G75*
G02*
X118385407Y-64581773I-400000J692820D01*
G01*
X118385407Y-64581773D01*
G75*
G02*
X118678227Y-63488953I692820J400000D01*
G01*
X118678227Y-63488953D01*
G75*
G02*
X119771047Y-63781773I400000J-692820D01*
G01*
X119771047Y-63781773D01*
G75*
G02*
X119478227Y-64874593I-692820J-400000D01*
G01*
G37*
G36*
G01*
X129297932Y-76802820D02*
X129297932Y-76802820D01*
G75*
G02*
X128205112Y-76510000I-400000J692820D01*
G01*
X128205112Y-76510000D01*
G75*
G02*
X128497932Y-75417180I692820J400000D01*
G01*
X128497932Y-75417180D01*
G75*
G02*
X129590752Y-75710000I400000J-692820D01*
G01*
X129590752Y-75710000D01*
G75*
G02*
X129297932Y-76802820I-692820J-400000D01*
G01*
G37*
G36*
G01*
X121677932Y-63604593D02*
X121677932Y-63604593D01*
G75*
G02*
X120585112Y-63311773I-400000J692820D01*
G01*
X120585112Y-63311773D01*
G75*
G02*
X120877932Y-62218953I692820J400000D01*
G01*
X120877932Y-62218953D01*
G75*
G02*
X121970752Y-62511773I400000J-692820D01*
G01*
X121970752Y-62511773D01*
G75*
G02*
X121677932Y-63604593I-692820J-400000D01*
G01*
G37*
G36*
G01*
X127098227Y-78072820D02*
X127098227Y-78072820D01*
G75*
G02*
X126005407Y-77780000I-400000J692820D01*
G01*
X126005407Y-77780000D01*
G75*
G02*
X126298227Y-76687180I692820J400000D01*
G01*
X126298227Y-76687180D01*
G75*
G02*
X127391047Y-76980000I400000J-692820D01*
G01*
X127391047Y-76980000D01*
G75*
G02*
X127098227Y-78072820I-692820J-400000D01*
G01*
G37*
G36*
G01*
X123877636Y-62334593D02*
X123877636Y-62334593D01*
G75*
G02*
X122784816Y-62041773I-400000J692820D01*
G01*
X122784816Y-62041773D01*
G75*
G02*
X123077636Y-60948953I692820J400000D01*
G01*
X123077636Y-60948953D01*
G75*
G02*
X124170456Y-61241773I400000J-692820D01*
G01*
X124170456Y-61241773D01*
G75*
G02*
X123877636Y-62334593I-692820J-400000D01*
G01*
G37*
G36*
G01*
X124898523Y-79342820D02*
X124898523Y-79342820D01*
G75*
G02*
X123805703Y-79050000I-400000J692820D01*
G01*
X123805703Y-79050000D01*
G75*
G02*
X124098523Y-77957180I692820J400000D01*
G01*
X124098523Y-77957180D01*
G75*
G02*
X125191343Y-78250000I400000J-692820D01*
G01*
X125191343Y-78250000D01*
G75*
G02*
X124898523Y-79342820I-692820J-400000D01*
G01*
G37*
G36*
G01*
X126077341Y-61064593D02*
X126077341Y-61064593D01*
G75*
G02*
X124984521Y-60771773I-400000J692820D01*
G01*
X124984521Y-60771773D01*
G75*
G02*
X125277341Y-59678953I692820J400000D01*
G01*
X125277341Y-59678953D01*
G75*
G02*
X126370161Y-59971773I400000J-692820D01*
G01*
X126370161Y-59971773D01*
G75*
G02*
X126077341Y-61064593I-692820J-400000D01*
G01*
G37*
G36*
G01*
X122698818Y-80612820D02*
X122698818Y-80612820D01*
G75*
G02*
X121605998Y-80320000I-400000J692820D01*
G01*
X121605998Y-80320000D01*
G75*
G02*
X121898818Y-79227180I692820J400000D01*
G01*
X121898818Y-79227180D01*
G75*
G02*
X122991638Y-79520000I400000J-692820D01*
G01*
X122991638Y-79520000D01*
G75*
G02*
X122698818Y-80612820I-692820J-400000D01*
G01*
G37*
G36*
G01*
X128277045Y-59794593D02*
X128277045Y-59794593D01*
G75*
G02*
X127184225Y-59501773I-400000J692820D01*
G01*
X127184225Y-59501773D01*
G75*
G02*
X127477045Y-58408953I692820J400000D01*
G01*
X127477045Y-58408953D01*
G75*
G02*
X128569865Y-58701773I400000J-692820D01*
G01*
X128569865Y-58701773D01*
G75*
G02*
X128277045Y-59794593I-692820J-400000D01*
G01*
G37*
G36*
G01*
X120499114Y-81882820D02*
X120499114Y-81882820D01*
G75*
G02*
X119406294Y-81590000I-400000J692820D01*
G01*
X119406294Y-81590000D01*
G75*
G02*
X119699114Y-80497180I692820J400000D01*
G01*
X119699114Y-80497180D01*
G75*
G02*
X120791934Y-80790000I400000J-692820D01*
G01*
X120791934Y-80790000D01*
G75*
G02*
X120499114Y-81882820I-692820J-400000D01*
G01*
G37*
G36*
G01*
X130476750Y-58524593D02*
X130476750Y-58524593D01*
G75*
G02*
X129383930Y-58231773I-400000J692820D01*
G01*
X129383930Y-58231773D01*
G75*
G02*
X129676750Y-57138953I692820J400000D01*
G01*
X129676750Y-57138953D01*
G75*
G02*
X130769570Y-57431773I400000J-692820D01*
G01*
X130769570Y-57431773D01*
G75*
G02*
X130476750Y-58524593I-692820J-400000D01*
G01*
G37*
G36*
G01*
X118299409Y-83152820D02*
X118299409Y-83152820D01*
G75*
G02*
X117206589Y-82860000I-400000J692820D01*
G01*
X117206589Y-82860000D01*
G75*
G02*
X117499409Y-81767180I692820J400000D01*
G01*
X117499409Y-81767180D01*
G75*
G02*
X118592229Y-82060000I400000J-692820D01*
G01*
X118592229Y-82060000D01*
G75*
G02*
X118299409Y-83152820I-692820J-400000D01*
G01*
G37*
G36*
G01*
X132676454Y-57254593D02*
X132676454Y-57254593D01*
G75*
G02*
X131583634Y-56961773I-400000J692820D01*
G01*
X131583634Y-56961773D01*
G75*
G02*
X131876454Y-55868953I692820J400000D01*
G01*
X131876454Y-55868953D01*
G75*
G02*
X132969274Y-56161773I400000J-692820D01*
G01*
X132969274Y-56161773D01*
G75*
G02*
X132676454Y-57254593I-692820J-400000D01*
G01*
G37*
G36*
G01*
X116099705Y-84422820D02*
X116099705Y-84422820D01*
G75*
G02*
X115006885Y-84130000I-400000J692820D01*
G01*
X115006885Y-84130000D01*
G75*
G02*
X115299705Y-83037180I692820J400000D01*
G01*
X115299705Y-83037180D01*
G75*
G02*
X116392525Y-83330000I400000J-692820D01*
G01*
X116392525Y-83330000D01*
G75*
G02*
X116099705Y-84422820I-692820J-400000D01*
G01*
G37*
G36*
G01*
X134876159Y-55984593D02*
X134876159Y-55984593D01*
G75*
G02*
X133783339Y-55691773I-400000J692820D01*
G01*
X133783339Y-55691773D01*
G75*
G02*
X134076159Y-54598953I692820J400000D01*
G01*
X134076159Y-54598953D01*
G75*
G02*
X135168979Y-54891773I400000J-692820D01*
G01*
X135168979Y-54891773D01*
G75*
G02*
X134876159Y-55984593I-692820J-400000D01*
G01*
G37*
D11*
G36*
X114592820Y-85292820D02*
G01*
X113207180Y-86092820D01*
X112407180Y-84707180D01*
X113792820Y-83907180D01*
X114592820Y-85292820D01*
G37*
%TD*%
D12*
%TO.C,Dial1*%
X139500000Y-46000000D03*
X142000000Y-46000000D03*
X144500000Y-46000000D03*
G36*
G01*
X147850000Y-45275000D02*
X147850000Y-46725000D01*
G75*
G02*
X147600000Y-46975000I-250000J0D01*
G01*
X146400000Y-46975000D01*
G75*
G02*
X146150000Y-46725000I0J250000D01*
G01*
X146150000Y-45275000D01*
G75*
G02*
X146400000Y-45025000I250000J0D01*
G01*
X147600000Y-45025000D01*
G75*
G02*
X147850000Y-45275000I0J-250000D01*
G01*
G37*
%TD*%
D13*
%TO.C,TP4056 Battery Charger*%
X47560000Y-75500000D03*
X47560000Y-83500000D03*
X47560000Y-72500000D03*
X47560000Y-86500000D03*
X70420000Y-72500000D03*
X70420000Y-86500000D03*
%TD*%
D14*
%TO.C,Battery*%
X36500000Y-46000000D03*
G36*
G01*
X39850000Y-45250000D02*
X39850000Y-46750000D01*
G75*
G02*
X39600000Y-47000000I-250000J0D01*
G01*
X38400000Y-47000000D01*
G75*
G02*
X38150000Y-46750000I0J250000D01*
G01*
X38150000Y-45250000D01*
G75*
G02*
X38400000Y-45000000I250000J0D01*
G01*
X39600000Y-45000000D01*
G75*
G02*
X39850000Y-45250000I0J-250000D01*
G01*
G37*
%TD*%
%TO.C,Power*%
X53000000Y-105500000D03*
G36*
G01*
X56350000Y-104750000D02*
X56350000Y-106250000D01*
G75*
G02*
X56100000Y-106500000I-250000J0D01*
G01*
X54900000Y-106500000D01*
G75*
G02*
X54650000Y-106250000I0J250000D01*
G01*
X54650000Y-104750000D01*
G75*
G02*
X54900000Y-104500000I250000J0D01*
G01*
X56100000Y-104500000D01*
G75*
G02*
X56350000Y-104750000I0J-250000D01*
G01*
G37*
%TD*%
D13*
%TO.C,U4*%
X41000000Y-66500000D03*
X23220000Y-66500000D03*
X41000000Y-106500000D03*
X23220000Y-106500000D03*
%TD*%
%TO.C,sim800l*%
X126500000Y-99200000D03*
X126500000Y-96660000D03*
X126500000Y-94120000D03*
X126500000Y-91580000D03*
X126500000Y-89040000D03*
X126500000Y-86500000D03*
X148000000Y-89040000D03*
X148000000Y-91580000D03*
X148000000Y-94120000D03*
X148000000Y-96660000D03*
X148000000Y-99200000D03*
X148000000Y-101740000D03*
%TD*%
D14*
%TO.C,Bell*%
X25500000Y-46000000D03*
G36*
G01*
X28850000Y-45250000D02*
X28850000Y-46750000D01*
G75*
G02*
X28600000Y-47000000I-250000J0D01*
G01*
X27400000Y-47000000D01*
G75*
G02*
X27150000Y-46750000I0J250000D01*
G01*
X27150000Y-45250000D01*
G75*
G02*
X27400000Y-45000000I250000J0D01*
G01*
X28600000Y-45000000D01*
G75*
G02*
X28850000Y-45250000I0J-250000D01*
G01*
G37*
%TD*%
D13*
%TO.C,Hook*%
X80000000Y-101500000D03*
X84000000Y-100000000D03*
X88000000Y-101500000D03*
X84000000Y-104600000D03*
%TD*%
%TO.C,U3*%
X109600000Y-106000000D03*
X104600000Y-106000000D03*
X99600000Y-106000000D03*
X94600000Y-106000000D03*
X109600000Y-108800000D03*
X104600000Y-108800000D03*
X99600000Y-108800000D03*
X94600000Y-108800000D03*
%TD*%
D15*
%TO.C,U2*%
X41000000Y-60620000D03*
X23220000Y-53000000D03*
X38460000Y-60620000D03*
X25760000Y-53000000D03*
X35920000Y-60620000D03*
X28300000Y-53000000D03*
X33380000Y-60620000D03*
X30840000Y-53000000D03*
X30840000Y-60620000D03*
X33380000Y-53000000D03*
X28300000Y-60620000D03*
X35920000Y-53000000D03*
X25760000Y-60620000D03*
X38460000Y-53000000D03*
X23220000Y-60620000D03*
D16*
X41000000Y-53000000D03*
%TD*%
M02*
