%TF.GenerationSoftware,KiCad,Pcbnew,(5.1.10)-1*%
%TF.CreationDate,2021-05-15T16:46:53+02:00*%
%TF.ProjectId,fetap,66657461-702e-46b6-9963-61645f706362,rev?*%
%TF.SameCoordinates,Original*%
%TF.FileFunction,Legend,Top*%
%TF.FilePolarity,Positive*%
%FSLAX46Y46*%
G04 Gerber Fmt 4.6, Leading zero omitted, Abs format (unit mm)*
G04 Created by KiCad (PCBNEW (5.1.10)-1) date 2021-05-15 16:46:53*
%MOMM*%
%LPD*%
G01*
G04 APERTURE LIST*
%ADD10C,0.150000*%
%ADD11C,0.125000*%
%ADD12C,0.120000*%
G04 APERTURE END LIST*
D10*
X74787976Y-75421428D02*
X75549880Y-75421428D01*
X75073690Y-76754761D02*
X75073690Y-75040476D01*
X75168928Y-74850000D01*
X75359404Y-74754761D01*
X75549880Y-74754761D01*
X76978452Y-76659523D02*
X76787976Y-76754761D01*
X76407023Y-76754761D01*
X76216547Y-76659523D01*
X76121309Y-76469047D01*
X76121309Y-75707142D01*
X76216547Y-75516666D01*
X76407023Y-75421428D01*
X76787976Y-75421428D01*
X76978452Y-75516666D01*
X77073690Y-75707142D01*
X77073690Y-75897619D01*
X76121309Y-76088095D01*
X77645119Y-75421428D02*
X78407023Y-75421428D01*
X77930833Y-74754761D02*
X77930833Y-76469047D01*
X78026071Y-76659523D01*
X78216547Y-76754761D01*
X78407023Y-76754761D01*
X79930833Y-76754761D02*
X79930833Y-75707142D01*
X79835595Y-75516666D01*
X79645119Y-75421428D01*
X79264166Y-75421428D01*
X79073690Y-75516666D01*
X79930833Y-76659523D02*
X79740357Y-76754761D01*
X79264166Y-76754761D01*
X79073690Y-76659523D01*
X78978452Y-76469047D01*
X78978452Y-76278571D01*
X79073690Y-76088095D01*
X79264166Y-75992857D01*
X79740357Y-75992857D01*
X79930833Y-75897619D01*
X80883214Y-75421428D02*
X80883214Y-77421428D01*
X80883214Y-75516666D02*
X81073690Y-75421428D01*
X81454642Y-75421428D01*
X81645119Y-75516666D01*
X81740357Y-75611904D01*
X81835595Y-75802380D01*
X81835595Y-76373809D01*
X81740357Y-76564285D01*
X81645119Y-76659523D01*
X81454642Y-76754761D01*
X81073690Y-76754761D01*
X80883214Y-76659523D01*
X82692738Y-75992857D02*
X84216547Y-75992857D01*
X85168928Y-76754761D02*
X85168928Y-75421428D01*
X85168928Y-75611904D02*
X85264166Y-75516666D01*
X85454642Y-75421428D01*
X85740357Y-75421428D01*
X85930833Y-75516666D01*
X86026071Y-75707142D01*
X86026071Y-76754761D01*
X86026071Y-75707142D02*
X86121309Y-75516666D01*
X86311785Y-75421428D01*
X86597500Y-75421428D01*
X86787976Y-75516666D01*
X86883214Y-75707142D01*
X86883214Y-76754761D01*
X88121309Y-76754761D02*
X87930833Y-76659523D01*
X87835595Y-76564285D01*
X87740357Y-76373809D01*
X87740357Y-75802380D01*
X87835595Y-75611904D01*
X87930833Y-75516666D01*
X88121309Y-75421428D01*
X88407023Y-75421428D01*
X88597500Y-75516666D01*
X88692738Y-75611904D01*
X88787976Y-75802380D01*
X88787976Y-76373809D01*
X88692738Y-76564285D01*
X88597500Y-76659523D01*
X88407023Y-76754761D01*
X88121309Y-76754761D01*
X89645119Y-76754761D02*
X89645119Y-74754761D01*
X89645119Y-75516666D02*
X89835595Y-75421428D01*
X90216547Y-75421428D01*
X90407023Y-75516666D01*
X90502261Y-75611904D01*
X90597500Y-75802380D01*
X90597500Y-76373809D01*
X90502261Y-76564285D01*
X90407023Y-76659523D01*
X90216547Y-76754761D01*
X89835595Y-76754761D01*
X89645119Y-76659523D01*
X91454642Y-76754761D02*
X91454642Y-75421428D01*
X91454642Y-74754761D02*
X91359404Y-74850000D01*
X91454642Y-74945238D01*
X91549880Y-74850000D01*
X91454642Y-74754761D01*
X91454642Y-74945238D01*
X92692738Y-76754761D02*
X92502261Y-76659523D01*
X92407023Y-76469047D01*
X92407023Y-74754761D01*
X94216547Y-76659523D02*
X94026071Y-76754761D01*
X93645119Y-76754761D01*
X93454642Y-76659523D01*
X93359404Y-76469047D01*
X93359404Y-75707142D01*
X93454642Y-75516666D01*
X93645119Y-75421428D01*
X94026071Y-75421428D01*
X94216547Y-75516666D01*
X94311785Y-75707142D01*
X94311785Y-75897619D01*
X93359404Y-76088095D01*
X76216547Y-79714285D02*
X76121309Y-79809523D01*
X75835595Y-79904761D01*
X75645119Y-79904761D01*
X75359404Y-79809523D01*
X75168928Y-79619047D01*
X75073690Y-79428571D01*
X74978452Y-79047619D01*
X74978452Y-78761904D01*
X75073690Y-78380952D01*
X75168928Y-78190476D01*
X75359404Y-78000000D01*
X75645119Y-77904761D01*
X75835595Y-77904761D01*
X76121309Y-78000000D01*
X76216547Y-78095238D01*
X78216547Y-79714285D02*
X78121309Y-79809523D01*
X77835595Y-79904761D01*
X77645119Y-79904761D01*
X77359404Y-79809523D01*
X77168928Y-79619047D01*
X77073690Y-79428571D01*
X76978452Y-79047619D01*
X76978452Y-78761904D01*
X77073690Y-78380952D01*
X77168928Y-78190476D01*
X77359404Y-78000000D01*
X77645119Y-77904761D01*
X77835595Y-77904761D01*
X78121309Y-78000000D01*
X78216547Y-78095238D01*
X81264166Y-78857142D02*
X81549880Y-78952380D01*
X81645119Y-79047619D01*
X81740357Y-79238095D01*
X81740357Y-79523809D01*
X81645119Y-79714285D01*
X81549880Y-79809523D01*
X81359404Y-79904761D01*
X80597500Y-79904761D01*
X80597500Y-77904761D01*
X81264166Y-77904761D01*
X81454642Y-78000000D01*
X81549880Y-78095238D01*
X81645119Y-78285714D01*
X81645119Y-78476190D01*
X81549880Y-78666666D01*
X81454642Y-78761904D01*
X81264166Y-78857142D01*
X80597500Y-78857142D01*
X82978452Y-78952380D02*
X82978452Y-79904761D01*
X82311785Y-77904761D02*
X82978452Y-78952380D01*
X83645119Y-77904761D01*
X75073690Y-83054761D02*
X75073690Y-81054761D01*
X75930833Y-83054761D02*
X75930833Y-82007142D01*
X75835595Y-81816666D01*
X75645119Y-81721428D01*
X75359404Y-81721428D01*
X75168928Y-81816666D01*
X75073690Y-81911904D01*
X76597500Y-81721428D02*
X77359404Y-81721428D01*
X76883214Y-81054761D02*
X76883214Y-82769047D01*
X76978452Y-82959523D01*
X77168928Y-83054761D01*
X77359404Y-83054761D01*
X77740357Y-81721428D02*
X78502261Y-81721428D01*
X78026071Y-81054761D02*
X78026071Y-82769047D01*
X78121309Y-82959523D01*
X78311785Y-83054761D01*
X78502261Y-83054761D01*
X79168928Y-81721428D02*
X79168928Y-83721428D01*
X79168928Y-81816666D02*
X79359404Y-81721428D01*
X79740357Y-81721428D01*
X79930833Y-81816666D01*
X80026071Y-81911904D01*
X80121309Y-82102380D01*
X80121309Y-82673809D01*
X80026071Y-82864285D01*
X79930833Y-82959523D01*
X79740357Y-83054761D01*
X79359404Y-83054761D01*
X79168928Y-82959523D01*
X80883214Y-82959523D02*
X81073690Y-83054761D01*
X81454642Y-83054761D01*
X81645119Y-82959523D01*
X81740357Y-82769047D01*
X81740357Y-82673809D01*
X81645119Y-82483333D01*
X81454642Y-82388095D01*
X81168928Y-82388095D01*
X80978452Y-82292857D01*
X80883214Y-82102380D01*
X80883214Y-82007142D01*
X80978452Y-81816666D01*
X81168928Y-81721428D01*
X81454642Y-81721428D01*
X81645119Y-81816666D01*
X82597500Y-82864285D02*
X82692738Y-82959523D01*
X82597500Y-83054761D01*
X82502261Y-82959523D01*
X82597500Y-82864285D01*
X82597500Y-83054761D01*
X82597500Y-81816666D02*
X82692738Y-81911904D01*
X82597500Y-82007142D01*
X82502261Y-81911904D01*
X82597500Y-81816666D01*
X82597500Y-82007142D01*
X84978452Y-80959523D02*
X83264166Y-83530952D01*
X87073690Y-80959523D02*
X85359404Y-83530952D01*
X87645119Y-82959523D02*
X87835595Y-83054761D01*
X88216547Y-83054761D01*
X88407023Y-82959523D01*
X88502261Y-82769047D01*
X88502261Y-82673809D01*
X88407023Y-82483333D01*
X88216547Y-82388095D01*
X87930833Y-82388095D01*
X87740357Y-82292857D01*
X87645119Y-82102380D01*
X87645119Y-82007142D01*
X87740357Y-81816666D01*
X87930833Y-81721428D01*
X88216547Y-81721428D01*
X88407023Y-81816666D01*
X90216547Y-81721428D02*
X90216547Y-83054761D01*
X89359404Y-81721428D02*
X89359404Y-82769047D01*
X89454642Y-82959523D01*
X89645119Y-83054761D01*
X89930833Y-83054761D01*
X90121309Y-82959523D01*
X90216547Y-82864285D01*
X91168928Y-83054761D02*
X91168928Y-81721428D01*
X91168928Y-81054761D02*
X91073690Y-81150000D01*
X91168928Y-81245238D01*
X91264166Y-81150000D01*
X91168928Y-81054761D01*
X91168928Y-81245238D01*
X92121309Y-82864285D02*
X92216547Y-82959523D01*
X92121309Y-83054761D01*
X92026071Y-82959523D01*
X92121309Y-82864285D01*
X92121309Y-83054761D01*
X93359404Y-83054761D02*
X93168928Y-82959523D01*
X93073690Y-82769047D01*
X93073690Y-81054761D01*
X94121309Y-83054761D02*
X94121309Y-81721428D01*
X94121309Y-81054761D02*
X94026071Y-81150000D01*
X94121309Y-81245238D01*
X94216547Y-81150000D01*
X94121309Y-81054761D01*
X94121309Y-81245238D01*
D11*
X36119047Y-48571428D02*
X36880952Y-48571428D01*
X38619047Y-48571428D02*
X39380952Y-48571428D01*
X39000000Y-48952380D02*
X39000000Y-48190476D01*
X52619047Y-108571428D02*
X53380952Y-108571428D01*
X55119047Y-108571428D02*
X55880952Y-108571428D01*
X55500000Y-108952380D02*
X55500000Y-108190476D01*
X144119047Y-48250000D02*
X144071428Y-48226190D01*
X144000000Y-48226190D01*
X143928571Y-48250000D01*
X143880952Y-48297619D01*
X143857142Y-48345238D01*
X143833333Y-48440476D01*
X143833333Y-48511904D01*
X143857142Y-48607142D01*
X143880952Y-48654761D01*
X143928571Y-48702380D01*
X144000000Y-48726190D01*
X144047619Y-48726190D01*
X144119047Y-48702380D01*
X144142857Y-48678571D01*
X144142857Y-48511904D01*
X144047619Y-48511904D01*
X144357142Y-48726190D02*
X144357142Y-48226190D01*
X144642857Y-48726190D01*
X144642857Y-48226190D01*
X144880952Y-48726190D02*
X144880952Y-48226190D01*
X145000000Y-48226190D01*
X145071428Y-48250000D01*
X145119047Y-48297619D01*
X145142857Y-48345238D01*
X145166666Y-48440476D01*
X145166666Y-48511904D01*
X145142857Y-48607142D01*
X145119047Y-48654761D01*
X145071428Y-48702380D01*
X145000000Y-48726190D01*
X144880952Y-48726190D01*
X146619047Y-48250000D02*
X146571428Y-48226190D01*
X146500000Y-48226190D01*
X146428571Y-48250000D01*
X146380952Y-48297619D01*
X146357142Y-48345238D01*
X146333333Y-48440476D01*
X146333333Y-48511904D01*
X146357142Y-48607142D01*
X146380952Y-48654761D01*
X146428571Y-48702380D01*
X146500000Y-48726190D01*
X146547619Y-48726190D01*
X146619047Y-48702380D01*
X146642857Y-48678571D01*
X146642857Y-48511904D01*
X146547619Y-48511904D01*
X146857142Y-48726190D02*
X146857142Y-48226190D01*
X147142857Y-48726190D01*
X147142857Y-48226190D01*
X147380952Y-48726190D02*
X147380952Y-48226190D01*
X147500000Y-48226190D01*
X147571428Y-48250000D01*
X147619047Y-48297619D01*
X147642857Y-48345238D01*
X147666666Y-48440476D01*
X147666666Y-48511904D01*
X147642857Y-48607142D01*
X147619047Y-48654761D01*
X147571428Y-48702380D01*
X147500000Y-48726190D01*
X147380952Y-48726190D01*
X105452380Y-73726190D02*
X105619047Y-74226190D01*
X105785714Y-73726190D01*
X105952380Y-74226190D02*
X105952380Y-73726190D01*
X106190476Y-74226190D02*
X106190476Y-73726190D01*
X106476190Y-74226190D01*
X106476190Y-73726190D01*
D10*
X30380952Y-57452380D02*
X29904761Y-57452380D01*
X29904761Y-56452380D01*
X30666666Y-56547619D02*
X30714285Y-56500000D01*
X30809523Y-56452380D01*
X31047619Y-56452380D01*
X31142857Y-56500000D01*
X31190476Y-56547619D01*
X31238095Y-56642857D01*
X31238095Y-56738095D01*
X31190476Y-56880952D01*
X30619047Y-57452380D01*
X31238095Y-57452380D01*
X31714285Y-57452380D02*
X31904761Y-57452380D01*
X32000000Y-57404761D01*
X32047619Y-57357142D01*
X32142857Y-57214285D01*
X32190476Y-57023809D01*
X32190476Y-56642857D01*
X32142857Y-56547619D01*
X32095238Y-56500000D01*
X32000000Y-56452380D01*
X31809523Y-56452380D01*
X31714285Y-56500000D01*
X31666666Y-56547619D01*
X31619047Y-56642857D01*
X31619047Y-56880952D01*
X31666666Y-56976190D01*
X31714285Y-57023809D01*
X31809523Y-57071428D01*
X32000000Y-57071428D01*
X32095238Y-57023809D01*
X32142857Y-56976190D01*
X32190476Y-56880952D01*
X32523809Y-56452380D02*
X33142857Y-56452380D01*
X32809523Y-56833333D01*
X32952380Y-56833333D01*
X33047619Y-56880952D01*
X33095238Y-56928571D01*
X33142857Y-57023809D01*
X33142857Y-57261904D01*
X33095238Y-57357142D01*
X33047619Y-57404761D01*
X32952380Y-57452380D01*
X32666666Y-57452380D01*
X32571428Y-57404761D01*
X32523809Y-57357142D01*
X33571428Y-57452380D02*
X33571428Y-56452380D01*
X33809523Y-56452380D01*
X33952380Y-56500000D01*
X34047619Y-56595238D01*
X34095238Y-56690476D01*
X34142857Y-56880952D01*
X34142857Y-57023809D01*
X34095238Y-57214285D01*
X34047619Y-57309523D01*
X33952380Y-57404761D01*
X33809523Y-57452380D01*
X33571428Y-57452380D01*
D11*
X22428571Y-68226190D02*
X22595238Y-68726190D01*
X22761904Y-68226190D01*
X23404761Y-68226190D02*
X23500000Y-68226190D01*
X23547619Y-68250000D01*
X23595238Y-68297619D01*
X23619047Y-68392857D01*
X23619047Y-68559523D01*
X23595238Y-68654761D01*
X23547619Y-68702380D01*
X23500000Y-68726190D01*
X23404761Y-68726190D01*
X23357142Y-68702380D01*
X23309523Y-68654761D01*
X23285714Y-68559523D01*
X23285714Y-68392857D01*
X23309523Y-68297619D01*
X23357142Y-68250000D01*
X23404761Y-68226190D01*
X23833333Y-68226190D02*
X23833333Y-68630952D01*
X23857142Y-68678571D01*
X23880952Y-68702380D01*
X23928571Y-68726190D01*
X24023809Y-68726190D01*
X24071428Y-68702380D01*
X24095238Y-68678571D01*
X24119047Y-68630952D01*
X24119047Y-68226190D01*
X24285714Y-68226190D02*
X24571428Y-68226190D01*
X24428571Y-68726190D02*
X24428571Y-68226190D01*
X22261904Y-104226190D02*
X22428571Y-104726190D01*
X22595238Y-104226190D01*
X23142857Y-104726190D02*
X23142857Y-104226190D01*
X23380952Y-104726190D02*
X23380952Y-104226190D01*
X23666666Y-104726190D01*
X23666666Y-104226190D01*
X40619047Y-104250000D02*
X40571428Y-104226190D01*
X40500000Y-104226190D01*
X40428571Y-104250000D01*
X40380952Y-104297619D01*
X40357142Y-104345238D01*
X40333333Y-104440476D01*
X40333333Y-104511904D01*
X40357142Y-104607142D01*
X40380952Y-104654761D01*
X40428571Y-104702380D01*
X40500000Y-104726190D01*
X40547619Y-104726190D01*
X40619047Y-104702380D01*
X40642857Y-104678571D01*
X40642857Y-104511904D01*
X40547619Y-104511904D01*
X40857142Y-104726190D02*
X40857142Y-104226190D01*
X41142857Y-104726190D01*
X41142857Y-104226190D01*
X41380952Y-104726190D02*
X41380952Y-104226190D01*
X41500000Y-104226190D01*
X41571428Y-104250000D01*
X41619047Y-104297619D01*
X41642857Y-104345238D01*
X41666666Y-104440476D01*
X41666666Y-104511904D01*
X41642857Y-104607142D01*
X41619047Y-104654761D01*
X41571428Y-104702380D01*
X41500000Y-104726190D01*
X41380952Y-104726190D01*
X40619047Y-68250000D02*
X40571428Y-68226190D01*
X40500000Y-68226190D01*
X40428571Y-68250000D01*
X40380952Y-68297619D01*
X40357142Y-68345238D01*
X40333333Y-68440476D01*
X40333333Y-68511904D01*
X40357142Y-68607142D01*
X40380952Y-68654761D01*
X40428571Y-68702380D01*
X40500000Y-68726190D01*
X40547619Y-68726190D01*
X40619047Y-68702380D01*
X40642857Y-68678571D01*
X40642857Y-68511904D01*
X40547619Y-68511904D01*
X40857142Y-68726190D02*
X40857142Y-68226190D01*
X41142857Y-68726190D01*
X41142857Y-68226190D01*
X41380952Y-68726190D02*
X41380952Y-68226190D01*
X41500000Y-68226190D01*
X41571428Y-68250000D01*
X41619047Y-68297619D01*
X41642857Y-68345238D01*
X41666666Y-68440476D01*
X41666666Y-68511904D01*
X41642857Y-68607142D01*
X41619047Y-68654761D01*
X41571428Y-68702380D01*
X41500000Y-68726190D01*
X41380952Y-68726190D01*
D10*
X23738095Y-84952380D02*
X23738095Y-83952380D01*
X23976190Y-83952380D01*
X24119047Y-84000000D01*
X24214285Y-84095238D01*
X24261904Y-84190476D01*
X24309523Y-84380952D01*
X24309523Y-84523809D01*
X24261904Y-84714285D01*
X24214285Y-84809523D01*
X24119047Y-84904761D01*
X23976190Y-84952380D01*
X23738095Y-84952380D01*
X25309523Y-84857142D02*
X25261904Y-84904761D01*
X25119047Y-84952380D01*
X25023809Y-84952380D01*
X24880952Y-84904761D01*
X24785714Y-84809523D01*
X24738095Y-84714285D01*
X24690476Y-84523809D01*
X24690476Y-84380952D01*
X24738095Y-84190476D01*
X24785714Y-84095238D01*
X24880952Y-84000000D01*
X25023809Y-83952380D01*
X25119047Y-83952380D01*
X25261904Y-84000000D01*
X25309523Y-84047619D01*
X25738095Y-84571428D02*
X26500000Y-84571428D01*
X26976190Y-84952380D02*
X26976190Y-83952380D01*
X27214285Y-83952380D01*
X27357142Y-84000000D01*
X27452380Y-84095238D01*
X27500000Y-84190476D01*
X27547619Y-84380952D01*
X27547619Y-84523809D01*
X27500000Y-84714285D01*
X27452380Y-84809523D01*
X27357142Y-84904761D01*
X27214285Y-84952380D01*
X26976190Y-84952380D01*
X28547619Y-84857142D02*
X28500000Y-84904761D01*
X28357142Y-84952380D01*
X28261904Y-84952380D01*
X28119047Y-84904761D01*
X28023809Y-84809523D01*
X27976190Y-84714285D01*
X27928571Y-84523809D01*
X27928571Y-84380952D01*
X27976190Y-84190476D01*
X28023809Y-84095238D01*
X28119047Y-84000000D01*
X28261904Y-83952380D01*
X28357142Y-83952380D01*
X28500000Y-84000000D01*
X28547619Y-84047619D01*
X29690476Y-84904761D02*
X29833333Y-84952380D01*
X30071428Y-84952380D01*
X30166666Y-84904761D01*
X30214285Y-84857142D01*
X30261904Y-84761904D01*
X30261904Y-84666666D01*
X30214285Y-84571428D01*
X30166666Y-84523809D01*
X30071428Y-84476190D01*
X29880952Y-84428571D01*
X29785714Y-84380952D01*
X29738095Y-84333333D01*
X29690476Y-84238095D01*
X29690476Y-84142857D01*
X29738095Y-84047619D01*
X29785714Y-84000000D01*
X29880952Y-83952380D01*
X30119047Y-83952380D01*
X30261904Y-84000000D01*
X30547619Y-84285714D02*
X30928571Y-84285714D01*
X30690476Y-83952380D02*
X30690476Y-84809523D01*
X30738095Y-84904761D01*
X30833333Y-84952380D01*
X30928571Y-84952380D01*
X31642857Y-84904761D02*
X31547619Y-84952380D01*
X31357142Y-84952380D01*
X31261904Y-84904761D01*
X31214285Y-84809523D01*
X31214285Y-84428571D01*
X31261904Y-84333333D01*
X31357142Y-84285714D01*
X31547619Y-84285714D01*
X31642857Y-84333333D01*
X31690476Y-84428571D01*
X31690476Y-84523809D01*
X31214285Y-84619047D01*
X32119047Y-84285714D02*
X32119047Y-85285714D01*
X32119047Y-84333333D02*
X32214285Y-84285714D01*
X32404761Y-84285714D01*
X32500000Y-84333333D01*
X32547619Y-84380952D01*
X32595238Y-84476190D01*
X32595238Y-84761904D01*
X32547619Y-84857142D01*
X32500000Y-84904761D01*
X32404761Y-84952380D01*
X32214285Y-84952380D01*
X32119047Y-84904761D01*
X33785714Y-83952380D02*
X33785714Y-84761904D01*
X33833333Y-84857142D01*
X33880952Y-84904761D01*
X33976190Y-84952380D01*
X34166666Y-84952380D01*
X34261904Y-84904761D01*
X34309523Y-84857142D01*
X34357142Y-84761904D01*
X34357142Y-83952380D01*
X34833333Y-84285714D02*
X34833333Y-85285714D01*
X34833333Y-84333333D02*
X34928571Y-84285714D01*
X35119047Y-84285714D01*
X35214285Y-84333333D01*
X35261904Y-84380952D01*
X35309523Y-84476190D01*
X35309523Y-84761904D01*
X35261904Y-84857142D01*
X35214285Y-84904761D01*
X35119047Y-84952380D01*
X34928571Y-84952380D01*
X34833333Y-84904761D01*
X36500000Y-84952380D02*
X36500000Y-83952380D01*
X36833333Y-84666666D01*
X37166666Y-83952380D01*
X37166666Y-84952380D01*
X37785714Y-84952380D02*
X37690476Y-84904761D01*
X37642857Y-84857142D01*
X37595238Y-84761904D01*
X37595238Y-84476190D01*
X37642857Y-84380952D01*
X37690476Y-84333333D01*
X37785714Y-84285714D01*
X37928571Y-84285714D01*
X38023809Y-84333333D01*
X38071428Y-84380952D01*
X38119047Y-84476190D01*
X38119047Y-84761904D01*
X38071428Y-84857142D01*
X38023809Y-84904761D01*
X37928571Y-84952380D01*
X37785714Y-84952380D01*
X38976190Y-84952380D02*
X38976190Y-83952380D01*
X38976190Y-84904761D02*
X38880952Y-84952380D01*
X38690476Y-84952380D01*
X38595238Y-84904761D01*
X38547619Y-84857142D01*
X38500000Y-84761904D01*
X38500000Y-84476190D01*
X38547619Y-84380952D01*
X38595238Y-84333333D01*
X38690476Y-84285714D01*
X38880952Y-84285714D01*
X38976190Y-84333333D01*
X39880952Y-84285714D02*
X39880952Y-84952380D01*
X39452380Y-84285714D02*
X39452380Y-84809523D01*
X39500000Y-84904761D01*
X39595238Y-84952380D01*
X39738095Y-84952380D01*
X39833333Y-84904761D01*
X39880952Y-84857142D01*
X40500000Y-84952380D02*
X40404761Y-84904761D01*
X40357142Y-84809523D01*
X40357142Y-83952380D01*
X41261904Y-84904761D02*
X41166666Y-84952380D01*
X40976190Y-84952380D01*
X40880952Y-84904761D01*
X40833333Y-84809523D01*
X40833333Y-84428571D01*
X40880952Y-84333333D01*
X40976190Y-84285714D01*
X41166666Y-84285714D01*
X41261904Y-84333333D01*
X41309523Y-84428571D01*
X41309523Y-84523809D01*
X40833333Y-84619047D01*
X140404761Y-110404761D02*
X140547619Y-110452380D01*
X140785714Y-110452380D01*
X140880952Y-110404761D01*
X140928571Y-110357142D01*
X140976190Y-110261904D01*
X140976190Y-110166666D01*
X140928571Y-110071428D01*
X140880952Y-110023809D01*
X140785714Y-109976190D01*
X140595238Y-109928571D01*
X140500000Y-109880952D01*
X140452380Y-109833333D01*
X140404761Y-109738095D01*
X140404761Y-109642857D01*
X140452380Y-109547619D01*
X140500000Y-109500000D01*
X140595238Y-109452380D01*
X140833333Y-109452380D01*
X140976190Y-109500000D01*
X141404761Y-110452380D02*
X141404761Y-109452380D01*
X141880952Y-110452380D02*
X141880952Y-109452380D01*
X142214285Y-110166666D01*
X142547619Y-109452380D01*
X142547619Y-110452380D01*
X144166666Y-110452380D02*
X144166666Y-109690476D01*
X143976190Y-109880952D02*
X144166666Y-109690476D01*
X144357142Y-109880952D01*
X94476190Y-103904761D02*
X94619047Y-103952380D01*
X94857142Y-103952380D01*
X94952380Y-103904761D01*
X95000000Y-103857142D01*
X95047619Y-103761904D01*
X95047619Y-103666666D01*
X95000000Y-103571428D01*
X94952380Y-103523809D01*
X94857142Y-103476190D01*
X94666666Y-103428571D01*
X94571428Y-103380952D01*
X94523809Y-103333333D01*
X94476190Y-103238095D01*
X94476190Y-103142857D01*
X94523809Y-103047619D01*
X94571428Y-103000000D01*
X94666666Y-102952380D01*
X94904761Y-102952380D01*
X95047619Y-103000000D01*
X95476190Y-103285714D02*
X95476190Y-104285714D01*
X95476190Y-103333333D02*
X95571428Y-103285714D01*
X95761904Y-103285714D01*
X95857142Y-103333333D01*
X95904761Y-103380952D01*
X95952380Y-103476190D01*
X95952380Y-103761904D01*
X95904761Y-103857142D01*
X95857142Y-103904761D01*
X95761904Y-103952380D01*
X95571428Y-103952380D01*
X95476190Y-103904761D01*
X96761904Y-103904761D02*
X96666666Y-103952380D01*
X96476190Y-103952380D01*
X96380952Y-103904761D01*
X96333333Y-103809523D01*
X96333333Y-103428571D01*
X96380952Y-103333333D01*
X96476190Y-103285714D01*
X96666666Y-103285714D01*
X96761904Y-103333333D01*
X96809523Y-103428571D01*
X96809523Y-103523809D01*
X96333333Y-103619047D01*
X97666666Y-103952380D02*
X97666666Y-103428571D01*
X97619047Y-103333333D01*
X97523809Y-103285714D01*
X97333333Y-103285714D01*
X97238095Y-103333333D01*
X97666666Y-103904761D02*
X97571428Y-103952380D01*
X97333333Y-103952380D01*
X97238095Y-103904761D01*
X97190476Y-103809523D01*
X97190476Y-103714285D01*
X97238095Y-103619047D01*
X97333333Y-103571428D01*
X97571428Y-103571428D01*
X97666666Y-103523809D01*
X98142857Y-103952380D02*
X98142857Y-102952380D01*
X98238095Y-103571428D02*
X98523809Y-103952380D01*
X98523809Y-103285714D02*
X98142857Y-103666666D01*
X99333333Y-103904761D02*
X99238095Y-103952380D01*
X99047619Y-103952380D01*
X98952380Y-103904761D01*
X98904761Y-103809523D01*
X98904761Y-103428571D01*
X98952380Y-103333333D01*
X99047619Y-103285714D01*
X99238095Y-103285714D01*
X99333333Y-103333333D01*
X99380952Y-103428571D01*
X99380952Y-103523809D01*
X98904761Y-103619047D01*
X99809523Y-103952380D02*
X99809523Y-103285714D01*
X99809523Y-103476190D02*
X99857142Y-103380952D01*
X99904761Y-103333333D01*
X100000000Y-103285714D01*
X100095238Y-103285714D01*
X103476190Y-103952380D02*
X103476190Y-102952380D01*
X103809523Y-103666666D01*
X104142857Y-102952380D01*
X104142857Y-103952380D01*
X104619047Y-103952380D02*
X104619047Y-103285714D01*
X104619047Y-102952380D02*
X104571428Y-103000000D01*
X104619047Y-103047619D01*
X104666666Y-103000000D01*
X104619047Y-102952380D01*
X104619047Y-103047619D01*
X105523809Y-103904761D02*
X105428571Y-103952380D01*
X105238095Y-103952380D01*
X105142857Y-103904761D01*
X105095238Y-103857142D01*
X105047619Y-103761904D01*
X105047619Y-103476190D01*
X105095238Y-103380952D01*
X105142857Y-103333333D01*
X105238095Y-103285714D01*
X105428571Y-103285714D01*
X105523809Y-103333333D01*
X105952380Y-103952380D02*
X105952380Y-103285714D01*
X105952380Y-103476190D02*
X106000000Y-103380952D01*
X106047619Y-103333333D01*
X106142857Y-103285714D01*
X106238095Y-103285714D01*
X106714285Y-103952380D02*
X106619047Y-103904761D01*
X106571428Y-103857142D01*
X106523809Y-103761904D01*
X106523809Y-103476190D01*
X106571428Y-103380952D01*
X106619047Y-103333333D01*
X106714285Y-103285714D01*
X106857142Y-103285714D01*
X106952380Y-103333333D01*
X107000000Y-103380952D01*
X107047619Y-103476190D01*
X107047619Y-103761904D01*
X107000000Y-103857142D01*
X106952380Y-103904761D01*
X106857142Y-103952380D01*
X106714285Y-103952380D01*
X107476190Y-103285714D02*
X107476190Y-104285714D01*
X107476190Y-103333333D02*
X107571428Y-103285714D01*
X107761904Y-103285714D01*
X107857142Y-103333333D01*
X107904761Y-103380952D01*
X107952380Y-103476190D01*
X107952380Y-103761904D01*
X107904761Y-103857142D01*
X107857142Y-103904761D01*
X107761904Y-103952380D01*
X107571428Y-103952380D01*
X107476190Y-103904761D01*
X108380952Y-103952380D02*
X108380952Y-102952380D01*
X108809523Y-103952380D02*
X108809523Y-103428571D01*
X108761904Y-103333333D01*
X108666666Y-103285714D01*
X108523809Y-103285714D01*
X108428571Y-103333333D01*
X108380952Y-103380952D01*
X109428571Y-103952380D02*
X109333333Y-103904761D01*
X109285714Y-103857142D01*
X109238095Y-103761904D01*
X109238095Y-103476190D01*
X109285714Y-103380952D01*
X109333333Y-103333333D01*
X109428571Y-103285714D01*
X109571428Y-103285714D01*
X109666666Y-103333333D01*
X109714285Y-103380952D01*
X109761904Y-103476190D01*
X109761904Y-103761904D01*
X109714285Y-103857142D01*
X109666666Y-103904761D01*
X109571428Y-103952380D01*
X109428571Y-103952380D01*
X110190476Y-103285714D02*
X110190476Y-103952380D01*
X110190476Y-103380952D02*
X110238095Y-103333333D01*
X110333333Y-103285714D01*
X110476190Y-103285714D01*
X110571428Y-103333333D01*
X110619047Y-103428571D01*
X110619047Y-103952380D01*
X111476190Y-103904761D02*
X111380952Y-103952380D01*
X111190476Y-103952380D01*
X111095238Y-103904761D01*
X111047619Y-103809523D01*
X111047619Y-103428571D01*
X111095238Y-103333333D01*
X111190476Y-103285714D01*
X111380952Y-103285714D01*
X111476190Y-103333333D01*
X111523809Y-103428571D01*
X111523809Y-103523809D01*
X111047619Y-103619047D01*
D12*
%TO.C,SW1*%
X148000000Y-78500000D02*
X148000000Y-74000000D01*
X144000000Y-79750000D02*
X145500000Y-79750000D01*
X141500000Y-74000000D02*
X141500000Y-78500000D01*
X145500000Y-72750000D02*
X144000000Y-72750000D01*
%TO.C,Arduino Nano*%
X113964852Y-83265148D02*
X111765148Y-84535148D01*
X111765148Y-84535148D02*
X113100148Y-86847436D01*
X115299852Y-85577436D02*
X148408003Y-66462436D01*
X110787860Y-88182436D02*
X113100148Y-86847436D01*
X105415148Y-73536625D02*
X104080148Y-71224337D01*
X105415148Y-73536625D02*
X138410716Y-54486625D01*
X138410716Y-54486625D02*
X137075716Y-52174337D01*
X113964852Y-83265148D02*
X115299852Y-85577436D01*
X113964852Y-83265148D02*
X144760716Y-65485148D01*
X144760716Y-65485148D02*
X146095716Y-67797436D01*
X148408003Y-66462436D02*
X139388003Y-50839337D01*
X139388003Y-50839337D02*
X101767860Y-72559337D01*
X101767860Y-72559337D02*
X110787860Y-88182436D01*
%TO.C,Dial1*%
X149910000Y-43390000D02*
X147410000Y-43390000D01*
X149910000Y-45890000D02*
X149910000Y-43390000D01*
X137890000Y-45190000D02*
X137890000Y-43690000D01*
X136890000Y-45190000D02*
X137890000Y-45190000D01*
X148610000Y-45190000D02*
X148610000Y-43690000D01*
X149610000Y-45190000D02*
X148610000Y-45190000D01*
X137390000Y-46000000D02*
X136890000Y-46000000D01*
X137390000Y-47210000D02*
X137390000Y-46000000D01*
X149110000Y-47210000D02*
X137390000Y-47210000D01*
X149110000Y-46000000D02*
X149110000Y-47210000D01*
X149610000Y-46000000D02*
X149110000Y-46000000D01*
X136890000Y-47710000D02*
X149610000Y-47710000D01*
X136890000Y-43690000D02*
X136890000Y-47710000D01*
X149610000Y-43690000D02*
X136890000Y-43690000D01*
X149610000Y-47710000D02*
X149610000Y-43690000D01*
%TO.C,TP4056 Battery Charger*%
X72960000Y-90280000D02*
X72960000Y-69960000D01*
X45020000Y-90280000D02*
X72960000Y-90280000D01*
X45020000Y-69960000D02*
X45020000Y-90280000D01*
X72960000Y-69960000D02*
X45020000Y-69960000D01*
%TO.C,Battery*%
X41910000Y-43390000D02*
X39410000Y-43390000D01*
X41910000Y-45890000D02*
X41910000Y-43390000D01*
X34890000Y-45190000D02*
X34890000Y-43690000D01*
X33890000Y-45190000D02*
X34890000Y-45190000D01*
X40610000Y-45190000D02*
X40610000Y-43690000D01*
X41610000Y-45190000D02*
X40610000Y-45190000D01*
X34390000Y-46000000D02*
X33890000Y-46000000D01*
X34390000Y-47210000D02*
X34390000Y-46000000D01*
X41110000Y-47210000D02*
X34390000Y-47210000D01*
X41110000Y-46000000D02*
X41110000Y-47210000D01*
X41610000Y-46000000D02*
X41110000Y-46000000D01*
X33890000Y-47710000D02*
X41610000Y-47710000D01*
X33890000Y-43690000D02*
X33890000Y-47710000D01*
X41610000Y-43690000D02*
X33890000Y-43690000D01*
X41610000Y-47710000D02*
X41610000Y-43690000D01*
%TO.C,Power*%
X58410000Y-102890000D02*
X55910000Y-102890000D01*
X58410000Y-105390000D02*
X58410000Y-102890000D01*
X51390000Y-104690000D02*
X51390000Y-103190000D01*
X50390000Y-104690000D02*
X51390000Y-104690000D01*
X57110000Y-104690000D02*
X57110000Y-103190000D01*
X58110000Y-104690000D02*
X57110000Y-104690000D01*
X50890000Y-105500000D02*
X50390000Y-105500000D01*
X50890000Y-106710000D02*
X50890000Y-105500000D01*
X57610000Y-106710000D02*
X50890000Y-106710000D01*
X57610000Y-105500000D02*
X57610000Y-106710000D01*
X58110000Y-105500000D02*
X57610000Y-105500000D01*
X50390000Y-107210000D02*
X58110000Y-107210000D01*
X50390000Y-103190000D02*
X50390000Y-107210000D01*
X58110000Y-103190000D02*
X50390000Y-103190000D01*
X58110000Y-107210000D02*
X58110000Y-103190000D01*
%TO.C,U4*%
X43540000Y-63320000D02*
X43540000Y-109040000D01*
X20680000Y-63320000D02*
X43540000Y-63320000D01*
X20680000Y-109040000D02*
X20680000Y-63320000D01*
X43540000Y-109040000D02*
X20680000Y-109040000D01*
%TO.C,sim800l*%
X150540000Y-85230000D02*
X150540000Y-82690000D01*
X123870000Y-82690000D02*
X150540000Y-82690000D01*
X123870000Y-108090000D02*
X123870000Y-82690000D01*
X150540000Y-108090000D02*
X123870000Y-108090000D01*
X150540000Y-85230000D02*
X150540000Y-108090000D01*
%TO.C,Bell*%
X30910000Y-43390000D02*
X28410000Y-43390000D01*
X30910000Y-45890000D02*
X30910000Y-43390000D01*
X23890000Y-45190000D02*
X23890000Y-43690000D01*
X22890000Y-45190000D02*
X23890000Y-45190000D01*
X29610000Y-45190000D02*
X29610000Y-43690000D01*
X30610000Y-45190000D02*
X29610000Y-45190000D01*
X23390000Y-46000000D02*
X22890000Y-46000000D01*
X23390000Y-47210000D02*
X23390000Y-46000000D01*
X30110000Y-47210000D02*
X23390000Y-47210000D01*
X30110000Y-46000000D02*
X30110000Y-47210000D01*
X30610000Y-46000000D02*
X30110000Y-46000000D01*
X22890000Y-47710000D02*
X30610000Y-47710000D01*
X22890000Y-43690000D02*
X22890000Y-47710000D01*
X30610000Y-43690000D02*
X22890000Y-43690000D01*
X30610000Y-47710000D02*
X30610000Y-43690000D01*
%TO.C,U2*%
X42330000Y-59460000D02*
X42330000Y-57810000D01*
X21890000Y-59460000D02*
X42330000Y-59460000D01*
X21890000Y-54160000D02*
X21890000Y-59460000D01*
X42330000Y-54160000D02*
X21890000Y-54160000D01*
X42330000Y-55810000D02*
X42330000Y-54160000D01*
X42330000Y-57810000D02*
G75*
G02*
X42330000Y-55810000I0J1000000D01*
G01*
%TO.C,SW1*%
D10*
X140904761Y-77583333D02*
X140952380Y-77440476D01*
X140952380Y-77202380D01*
X140904761Y-77107142D01*
X140857142Y-77059523D01*
X140761904Y-77011904D01*
X140666666Y-77011904D01*
X140571428Y-77059523D01*
X140523809Y-77107142D01*
X140476190Y-77202380D01*
X140428571Y-77392857D01*
X140380952Y-77488095D01*
X140333333Y-77535714D01*
X140238095Y-77583333D01*
X140142857Y-77583333D01*
X140047619Y-77535714D01*
X140000000Y-77488095D01*
X139952380Y-77392857D01*
X139952380Y-77154761D01*
X140000000Y-77011904D01*
X139952380Y-76678571D02*
X140952380Y-76440476D01*
X140238095Y-76250000D01*
X140952380Y-76059523D01*
X139952380Y-75821428D01*
X140952380Y-74916666D02*
X140952380Y-75488095D01*
X140952380Y-75202380D02*
X139952380Y-75202380D01*
X140095238Y-75297619D01*
X140190476Y-75392857D01*
X140238095Y-75488095D01*
%TO.C,Arduino Nano*%
X120376923Y-72072908D02*
X120789316Y-71834813D01*
X120437301Y-72367963D02*
X120225976Y-71335271D01*
X121014652Y-72034630D01*
X121303327Y-71867963D02*
X120969993Y-71290613D01*
X121065231Y-71455570D02*
X121058852Y-71349282D01*
X121076281Y-71284233D01*
X121134951Y-71195375D01*
X121217429Y-71147756D01*
X122210591Y-71344154D02*
X121710591Y-70478128D01*
X122186782Y-71302915D02*
X122128113Y-71391773D01*
X121963156Y-71487011D01*
X121856867Y-71493391D01*
X121791819Y-71475961D01*
X121702960Y-71417292D01*
X121560103Y-71169856D01*
X121553723Y-71063568D01*
X121571153Y-70998519D01*
X121629822Y-70909661D01*
X121794779Y-70814423D01*
X121901068Y-70808043D01*
X122660805Y-70314423D02*
X122994138Y-70891773D01*
X122289651Y-70528708D02*
X122551556Y-70982341D01*
X122640414Y-71041010D01*
X122746702Y-71034630D01*
X122870420Y-70963201D01*
X122929089Y-70874343D01*
X122946519Y-70809294D01*
X123406531Y-70653678D02*
X123073198Y-70076327D01*
X122906531Y-69787652D02*
X122889101Y-69852701D01*
X122954150Y-69870131D01*
X122971580Y-69805082D01*
X122906531Y-69787652D01*
X122954150Y-69870131D01*
X123485591Y-69838232D02*
X123818924Y-70415582D01*
X123533210Y-69920711D02*
X123550640Y-69855662D01*
X123609309Y-69766804D01*
X123733027Y-69695375D01*
X123839315Y-69688995D01*
X123928173Y-69747664D01*
X124190078Y-70201297D01*
X124726189Y-69891773D02*
X124619901Y-69898153D01*
X124554852Y-69880723D01*
X124465994Y-69822054D01*
X124323137Y-69574618D01*
X124316757Y-69468330D01*
X124334187Y-69403281D01*
X124392856Y-69314423D01*
X124516574Y-69242994D01*
X124622862Y-69236614D01*
X124687911Y-69254044D01*
X124776769Y-69312713D01*
X124919626Y-69560149D01*
X124926006Y-69666437D01*
X124908576Y-69731486D01*
X124849907Y-69820344D01*
X124726189Y-69891773D01*
X126045847Y-69129868D02*
X125545847Y-68263843D01*
X126540718Y-68844154D01*
X126040718Y-67978128D01*
X127324265Y-68391773D02*
X127062360Y-67938141D01*
X126973502Y-67879471D01*
X126867214Y-67885851D01*
X126702257Y-67981089D01*
X126643588Y-68069948D01*
X127300456Y-68350534D02*
X127241787Y-68439392D01*
X127035590Y-68558440D01*
X126929302Y-68564819D01*
X126840444Y-68506150D01*
X126792825Y-68423672D01*
X126786445Y-68317383D01*
X126845114Y-68228525D01*
X127051310Y-68109478D01*
X127109979Y-68020619D01*
X127403325Y-67576327D02*
X127736658Y-68153678D01*
X127450944Y-67658806D02*
X127468374Y-67593757D01*
X127527043Y-67504899D01*
X127650761Y-67433470D01*
X127757049Y-67427091D01*
X127845907Y-67485760D01*
X128107812Y-67939392D01*
X128643923Y-67629868D02*
X128537635Y-67636248D01*
X128472586Y-67618818D01*
X128383728Y-67560149D01*
X128240870Y-67312713D01*
X128234491Y-67206425D01*
X128251921Y-67141376D01*
X128310590Y-67052518D01*
X128434308Y-66981089D01*
X128540596Y-66974710D01*
X128605644Y-66992139D01*
X128694503Y-67050808D01*
X128837360Y-67298244D01*
X128843740Y-67404532D01*
X128826310Y-67469581D01*
X128767641Y-67558440D01*
X128643923Y-67629868D01*
%TO.C,Dial1*%
X141559523Y-42952380D02*
X141559523Y-41952380D01*
X141797619Y-41952380D01*
X141940476Y-42000000D01*
X142035714Y-42095238D01*
X142083333Y-42190476D01*
X142130952Y-42380952D01*
X142130952Y-42523809D01*
X142083333Y-42714285D01*
X142035714Y-42809523D01*
X141940476Y-42904761D01*
X141797619Y-42952380D01*
X141559523Y-42952380D01*
X142559523Y-42952380D02*
X142559523Y-42285714D01*
X142559523Y-41952380D02*
X142511904Y-42000000D01*
X142559523Y-42047619D01*
X142607142Y-42000000D01*
X142559523Y-41952380D01*
X142559523Y-42047619D01*
X143464285Y-42952380D02*
X143464285Y-42428571D01*
X143416666Y-42333333D01*
X143321428Y-42285714D01*
X143130952Y-42285714D01*
X143035714Y-42333333D01*
X143464285Y-42904761D02*
X143369047Y-42952380D01*
X143130952Y-42952380D01*
X143035714Y-42904761D01*
X142988095Y-42809523D01*
X142988095Y-42714285D01*
X143035714Y-42619047D01*
X143130952Y-42571428D01*
X143369047Y-42571428D01*
X143464285Y-42523809D01*
X144083333Y-42952380D02*
X143988095Y-42904761D01*
X143940476Y-42809523D01*
X143940476Y-41952380D01*
X144988095Y-42952380D02*
X144416666Y-42952380D01*
X144702380Y-42952380D02*
X144702380Y-41952380D01*
X144607142Y-42095238D01*
X144511904Y-42190476D01*
X144416666Y-42238095D01*
%TO.C,TP4056 Battery Charger*%
X51000000Y-79452380D02*
X51571428Y-79452380D01*
X51285714Y-80452380D02*
X51285714Y-79452380D01*
X51904761Y-80452380D02*
X51904761Y-79452380D01*
X52285714Y-79452380D01*
X52380952Y-79500000D01*
X52428571Y-79547619D01*
X52476190Y-79642857D01*
X52476190Y-79785714D01*
X52428571Y-79880952D01*
X52380952Y-79928571D01*
X52285714Y-79976190D01*
X51904761Y-79976190D01*
X53333333Y-79785714D02*
X53333333Y-80452380D01*
X53095238Y-79404761D02*
X52857142Y-80119047D01*
X53476190Y-80119047D01*
X54047619Y-79452380D02*
X54142857Y-79452380D01*
X54238095Y-79500000D01*
X54285714Y-79547619D01*
X54333333Y-79642857D01*
X54380952Y-79833333D01*
X54380952Y-80071428D01*
X54333333Y-80261904D01*
X54285714Y-80357142D01*
X54238095Y-80404761D01*
X54142857Y-80452380D01*
X54047619Y-80452380D01*
X53952380Y-80404761D01*
X53904761Y-80357142D01*
X53857142Y-80261904D01*
X53809523Y-80071428D01*
X53809523Y-79833333D01*
X53857142Y-79642857D01*
X53904761Y-79547619D01*
X53952380Y-79500000D01*
X54047619Y-79452380D01*
X55285714Y-79452380D02*
X54809523Y-79452380D01*
X54761904Y-79928571D01*
X54809523Y-79880952D01*
X54904761Y-79833333D01*
X55142857Y-79833333D01*
X55238095Y-79880952D01*
X55285714Y-79928571D01*
X55333333Y-80023809D01*
X55333333Y-80261904D01*
X55285714Y-80357142D01*
X55238095Y-80404761D01*
X55142857Y-80452380D01*
X54904761Y-80452380D01*
X54809523Y-80404761D01*
X54761904Y-80357142D01*
X56190476Y-79452380D02*
X56000000Y-79452380D01*
X55904761Y-79500000D01*
X55857142Y-79547619D01*
X55761904Y-79690476D01*
X55714285Y-79880952D01*
X55714285Y-80261904D01*
X55761904Y-80357142D01*
X55809523Y-80404761D01*
X55904761Y-80452380D01*
X56095238Y-80452380D01*
X56190476Y-80404761D01*
X56238095Y-80357142D01*
X56285714Y-80261904D01*
X56285714Y-80023809D01*
X56238095Y-79928571D01*
X56190476Y-79880952D01*
X56095238Y-79833333D01*
X55904761Y-79833333D01*
X55809523Y-79880952D01*
X55761904Y-79928571D01*
X55714285Y-80023809D01*
X57809523Y-79928571D02*
X57952380Y-79976190D01*
X58000000Y-80023809D01*
X58047619Y-80119047D01*
X58047619Y-80261904D01*
X58000000Y-80357142D01*
X57952380Y-80404761D01*
X57857142Y-80452380D01*
X57476190Y-80452380D01*
X57476190Y-79452380D01*
X57809523Y-79452380D01*
X57904761Y-79500000D01*
X57952380Y-79547619D01*
X58000000Y-79642857D01*
X58000000Y-79738095D01*
X57952380Y-79833333D01*
X57904761Y-79880952D01*
X57809523Y-79928571D01*
X57476190Y-79928571D01*
X58904761Y-80452380D02*
X58904761Y-79928571D01*
X58857142Y-79833333D01*
X58761904Y-79785714D01*
X58571428Y-79785714D01*
X58476190Y-79833333D01*
X58904761Y-80404761D02*
X58809523Y-80452380D01*
X58571428Y-80452380D01*
X58476190Y-80404761D01*
X58428571Y-80309523D01*
X58428571Y-80214285D01*
X58476190Y-80119047D01*
X58571428Y-80071428D01*
X58809523Y-80071428D01*
X58904761Y-80023809D01*
X59238095Y-79785714D02*
X59619047Y-79785714D01*
X59380952Y-79452380D02*
X59380952Y-80309523D01*
X59428571Y-80404761D01*
X59523809Y-80452380D01*
X59619047Y-80452380D01*
X59809523Y-79785714D02*
X60190476Y-79785714D01*
X59952380Y-79452380D02*
X59952380Y-80309523D01*
X60000000Y-80404761D01*
X60095238Y-80452380D01*
X60190476Y-80452380D01*
X60904761Y-80404761D02*
X60809523Y-80452380D01*
X60619047Y-80452380D01*
X60523809Y-80404761D01*
X60476190Y-80309523D01*
X60476190Y-79928571D01*
X60523809Y-79833333D01*
X60619047Y-79785714D01*
X60809523Y-79785714D01*
X60904761Y-79833333D01*
X60952380Y-79928571D01*
X60952380Y-80023809D01*
X60476190Y-80119047D01*
X61380952Y-80452380D02*
X61380952Y-79785714D01*
X61380952Y-79976190D02*
X61428571Y-79880952D01*
X61476190Y-79833333D01*
X61571428Y-79785714D01*
X61666666Y-79785714D01*
X61904761Y-79785714D02*
X62142857Y-80452380D01*
X62380952Y-79785714D02*
X62142857Y-80452380D01*
X62047619Y-80690476D01*
X62000000Y-80738095D01*
X61904761Y-80785714D01*
X64095238Y-80357142D02*
X64047619Y-80404761D01*
X63904761Y-80452380D01*
X63809523Y-80452380D01*
X63666666Y-80404761D01*
X63571428Y-80309523D01*
X63523809Y-80214285D01*
X63476190Y-80023809D01*
X63476190Y-79880952D01*
X63523809Y-79690476D01*
X63571428Y-79595238D01*
X63666666Y-79500000D01*
X63809523Y-79452380D01*
X63904761Y-79452380D01*
X64047619Y-79500000D01*
X64095238Y-79547619D01*
X64523809Y-80452380D02*
X64523809Y-79452380D01*
X64952380Y-80452380D02*
X64952380Y-79928571D01*
X64904761Y-79833333D01*
X64809523Y-79785714D01*
X64666666Y-79785714D01*
X64571428Y-79833333D01*
X64523809Y-79880952D01*
X65857142Y-80452380D02*
X65857142Y-79928571D01*
X65809523Y-79833333D01*
X65714285Y-79785714D01*
X65523809Y-79785714D01*
X65428571Y-79833333D01*
X65857142Y-80404761D02*
X65761904Y-80452380D01*
X65523809Y-80452380D01*
X65428571Y-80404761D01*
X65380952Y-80309523D01*
X65380952Y-80214285D01*
X65428571Y-80119047D01*
X65523809Y-80071428D01*
X65761904Y-80071428D01*
X65857142Y-80023809D01*
X66333333Y-80452380D02*
X66333333Y-79785714D01*
X66333333Y-79976190D02*
X66380952Y-79880952D01*
X66428571Y-79833333D01*
X66523809Y-79785714D01*
X66619047Y-79785714D01*
X67380952Y-79785714D02*
X67380952Y-80595238D01*
X67333333Y-80690476D01*
X67285714Y-80738095D01*
X67190476Y-80785714D01*
X67047619Y-80785714D01*
X66952380Y-80738095D01*
X67380952Y-80404761D02*
X67285714Y-80452380D01*
X67095238Y-80452380D01*
X67000000Y-80404761D01*
X66952380Y-80357142D01*
X66904761Y-80261904D01*
X66904761Y-79976190D01*
X66952380Y-79880952D01*
X67000000Y-79833333D01*
X67095238Y-79785714D01*
X67285714Y-79785714D01*
X67380952Y-79833333D01*
X68238095Y-80404761D02*
X68142857Y-80452380D01*
X67952380Y-80452380D01*
X67857142Y-80404761D01*
X67809523Y-80309523D01*
X67809523Y-79928571D01*
X67857142Y-79833333D01*
X67952380Y-79785714D01*
X68142857Y-79785714D01*
X68238095Y-79833333D01*
X68285714Y-79928571D01*
X68285714Y-80023809D01*
X67809523Y-80119047D01*
X68714285Y-80452380D02*
X68714285Y-79785714D01*
X68714285Y-79976190D02*
X68761904Y-79880952D01*
X68809523Y-79833333D01*
X68904761Y-79785714D01*
X69000000Y-79785714D01*
%TO.C,Battery*%
X35678571Y-42428571D02*
X35821428Y-42476190D01*
X35869047Y-42523809D01*
X35916666Y-42619047D01*
X35916666Y-42761904D01*
X35869047Y-42857142D01*
X35821428Y-42904761D01*
X35726190Y-42952380D01*
X35345238Y-42952380D01*
X35345238Y-41952380D01*
X35678571Y-41952380D01*
X35773809Y-42000000D01*
X35821428Y-42047619D01*
X35869047Y-42142857D01*
X35869047Y-42238095D01*
X35821428Y-42333333D01*
X35773809Y-42380952D01*
X35678571Y-42428571D01*
X35345238Y-42428571D01*
X36773809Y-42952380D02*
X36773809Y-42428571D01*
X36726190Y-42333333D01*
X36630952Y-42285714D01*
X36440476Y-42285714D01*
X36345238Y-42333333D01*
X36773809Y-42904761D02*
X36678571Y-42952380D01*
X36440476Y-42952380D01*
X36345238Y-42904761D01*
X36297619Y-42809523D01*
X36297619Y-42714285D01*
X36345238Y-42619047D01*
X36440476Y-42571428D01*
X36678571Y-42571428D01*
X36773809Y-42523809D01*
X37107142Y-42285714D02*
X37488095Y-42285714D01*
X37250000Y-41952380D02*
X37250000Y-42809523D01*
X37297619Y-42904761D01*
X37392857Y-42952380D01*
X37488095Y-42952380D01*
X37678571Y-42285714D02*
X38059523Y-42285714D01*
X37821428Y-41952380D02*
X37821428Y-42809523D01*
X37869047Y-42904761D01*
X37964285Y-42952380D01*
X38059523Y-42952380D01*
X38773809Y-42904761D02*
X38678571Y-42952380D01*
X38488095Y-42952380D01*
X38392857Y-42904761D01*
X38345238Y-42809523D01*
X38345238Y-42428571D01*
X38392857Y-42333333D01*
X38488095Y-42285714D01*
X38678571Y-42285714D01*
X38773809Y-42333333D01*
X38821428Y-42428571D01*
X38821428Y-42523809D01*
X38345238Y-42619047D01*
X39250000Y-42952380D02*
X39250000Y-42285714D01*
X39250000Y-42476190D02*
X39297619Y-42380952D01*
X39345238Y-42333333D01*
X39440476Y-42285714D01*
X39535714Y-42285714D01*
X39773809Y-42285714D02*
X40011904Y-42952380D01*
X40250000Y-42285714D02*
X40011904Y-42952380D01*
X39916666Y-43190476D01*
X39869047Y-43238095D01*
X39773809Y-43285714D01*
%TO.C,Power*%
X52273809Y-102452380D02*
X52273809Y-101452380D01*
X52654761Y-101452380D01*
X52750000Y-101500000D01*
X52797619Y-101547619D01*
X52845238Y-101642857D01*
X52845238Y-101785714D01*
X52797619Y-101880952D01*
X52750000Y-101928571D01*
X52654761Y-101976190D01*
X52273809Y-101976190D01*
X53416666Y-102452380D02*
X53321428Y-102404761D01*
X53273809Y-102357142D01*
X53226190Y-102261904D01*
X53226190Y-101976190D01*
X53273809Y-101880952D01*
X53321428Y-101833333D01*
X53416666Y-101785714D01*
X53559523Y-101785714D01*
X53654761Y-101833333D01*
X53702380Y-101880952D01*
X53750000Y-101976190D01*
X53750000Y-102261904D01*
X53702380Y-102357142D01*
X53654761Y-102404761D01*
X53559523Y-102452380D01*
X53416666Y-102452380D01*
X54083333Y-101785714D02*
X54273809Y-102452380D01*
X54464285Y-101976190D01*
X54654761Y-102452380D01*
X54845238Y-101785714D01*
X55607142Y-102404761D02*
X55511904Y-102452380D01*
X55321428Y-102452380D01*
X55226190Y-102404761D01*
X55178571Y-102309523D01*
X55178571Y-101928571D01*
X55226190Y-101833333D01*
X55321428Y-101785714D01*
X55511904Y-101785714D01*
X55607142Y-101833333D01*
X55654761Y-101928571D01*
X55654761Y-102023809D01*
X55178571Y-102119047D01*
X56083333Y-102452380D02*
X56083333Y-101785714D01*
X56083333Y-101976190D02*
X56130952Y-101880952D01*
X56178571Y-101833333D01*
X56273809Y-101785714D01*
X56369047Y-101785714D01*
%TO.C,U4*%
X23172380Y-107261904D02*
X23981904Y-107261904D01*
X24077142Y-107214285D01*
X24124761Y-107166666D01*
X24172380Y-107071428D01*
X24172380Y-106880952D01*
X24124761Y-106785714D01*
X24077142Y-106738095D01*
X23981904Y-106690476D01*
X23172380Y-106690476D01*
X23505714Y-105785714D02*
X24172380Y-105785714D01*
X23124761Y-106023809D02*
X23839047Y-106261904D01*
X23839047Y-105642857D01*
%TO.C,sim800l*%
X134190476Y-95904761D02*
X134285714Y-95952380D01*
X134476190Y-95952380D01*
X134571428Y-95904761D01*
X134619047Y-95809523D01*
X134619047Y-95761904D01*
X134571428Y-95666666D01*
X134476190Y-95619047D01*
X134333333Y-95619047D01*
X134238095Y-95571428D01*
X134190476Y-95476190D01*
X134190476Y-95428571D01*
X134238095Y-95333333D01*
X134333333Y-95285714D01*
X134476190Y-95285714D01*
X134571428Y-95333333D01*
X135047619Y-95952380D02*
X135047619Y-95285714D01*
X135047619Y-94952380D02*
X135000000Y-95000000D01*
X135047619Y-95047619D01*
X135095238Y-95000000D01*
X135047619Y-94952380D01*
X135047619Y-95047619D01*
X135523809Y-95952380D02*
X135523809Y-95285714D01*
X135523809Y-95380952D02*
X135571428Y-95333333D01*
X135666666Y-95285714D01*
X135809523Y-95285714D01*
X135904761Y-95333333D01*
X135952380Y-95428571D01*
X135952380Y-95952380D01*
X135952380Y-95428571D02*
X136000000Y-95333333D01*
X136095238Y-95285714D01*
X136238095Y-95285714D01*
X136333333Y-95333333D01*
X136380952Y-95428571D01*
X136380952Y-95952380D01*
X137000000Y-95380952D02*
X136904761Y-95333333D01*
X136857142Y-95285714D01*
X136809523Y-95190476D01*
X136809523Y-95142857D01*
X136857142Y-95047619D01*
X136904761Y-95000000D01*
X137000000Y-94952380D01*
X137190476Y-94952380D01*
X137285714Y-95000000D01*
X137333333Y-95047619D01*
X137380952Y-95142857D01*
X137380952Y-95190476D01*
X137333333Y-95285714D01*
X137285714Y-95333333D01*
X137190476Y-95380952D01*
X137000000Y-95380952D01*
X136904761Y-95428571D01*
X136857142Y-95476190D01*
X136809523Y-95571428D01*
X136809523Y-95761904D01*
X136857142Y-95857142D01*
X136904761Y-95904761D01*
X137000000Y-95952380D01*
X137190476Y-95952380D01*
X137285714Y-95904761D01*
X137333333Y-95857142D01*
X137380952Y-95761904D01*
X137380952Y-95571428D01*
X137333333Y-95476190D01*
X137285714Y-95428571D01*
X137190476Y-95380952D01*
X138000000Y-94952380D02*
X138095238Y-94952380D01*
X138190476Y-95000000D01*
X138238095Y-95047619D01*
X138285714Y-95142857D01*
X138333333Y-95333333D01*
X138333333Y-95571428D01*
X138285714Y-95761904D01*
X138238095Y-95857142D01*
X138190476Y-95904761D01*
X138095238Y-95952380D01*
X138000000Y-95952380D01*
X137904761Y-95904761D01*
X137857142Y-95857142D01*
X137809523Y-95761904D01*
X137761904Y-95571428D01*
X137761904Y-95333333D01*
X137809523Y-95142857D01*
X137857142Y-95047619D01*
X137904761Y-95000000D01*
X138000000Y-94952380D01*
X138952380Y-94952380D02*
X139047619Y-94952380D01*
X139142857Y-95000000D01*
X139190476Y-95047619D01*
X139238095Y-95142857D01*
X139285714Y-95333333D01*
X139285714Y-95571428D01*
X139238095Y-95761904D01*
X139190476Y-95857142D01*
X139142857Y-95904761D01*
X139047619Y-95952380D01*
X138952380Y-95952380D01*
X138857142Y-95904761D01*
X138809523Y-95857142D01*
X138761904Y-95761904D01*
X138714285Y-95571428D01*
X138714285Y-95333333D01*
X138761904Y-95142857D01*
X138809523Y-95047619D01*
X138857142Y-95000000D01*
X138952380Y-94952380D01*
X139857142Y-95952380D02*
X139761904Y-95904761D01*
X139714285Y-95809523D01*
X139714285Y-94952380D01*
%TO.C,Bell*%
X25869047Y-42428571D02*
X26011904Y-42476190D01*
X26059523Y-42523809D01*
X26107142Y-42619047D01*
X26107142Y-42761904D01*
X26059523Y-42857142D01*
X26011904Y-42904761D01*
X25916666Y-42952380D01*
X25535714Y-42952380D01*
X25535714Y-41952380D01*
X25869047Y-41952380D01*
X25964285Y-42000000D01*
X26011904Y-42047619D01*
X26059523Y-42142857D01*
X26059523Y-42238095D01*
X26011904Y-42333333D01*
X25964285Y-42380952D01*
X25869047Y-42428571D01*
X25535714Y-42428571D01*
X26916666Y-42904761D02*
X26821428Y-42952380D01*
X26630952Y-42952380D01*
X26535714Y-42904761D01*
X26488095Y-42809523D01*
X26488095Y-42428571D01*
X26535714Y-42333333D01*
X26630952Y-42285714D01*
X26821428Y-42285714D01*
X26916666Y-42333333D01*
X26964285Y-42428571D01*
X26964285Y-42523809D01*
X26488095Y-42619047D01*
X27535714Y-42952380D02*
X27440476Y-42904761D01*
X27392857Y-42809523D01*
X27392857Y-41952380D01*
X28059523Y-42952380D02*
X27964285Y-42904761D01*
X27916666Y-42809523D01*
X27916666Y-41952380D01*
%TO.C,Hook*%
X79404761Y-106152380D02*
X79404761Y-105152380D01*
X79404761Y-105628571D02*
X79976190Y-105628571D01*
X79976190Y-106152380D02*
X79976190Y-105152380D01*
X80595238Y-106152380D02*
X80500000Y-106104761D01*
X80452380Y-106057142D01*
X80404761Y-105961904D01*
X80404761Y-105676190D01*
X80452380Y-105580952D01*
X80500000Y-105533333D01*
X80595238Y-105485714D01*
X80738095Y-105485714D01*
X80833333Y-105533333D01*
X80880952Y-105580952D01*
X80928571Y-105676190D01*
X80928571Y-105961904D01*
X80880952Y-106057142D01*
X80833333Y-106104761D01*
X80738095Y-106152380D01*
X80595238Y-106152380D01*
X81500000Y-106152380D02*
X81404761Y-106104761D01*
X81357142Y-106057142D01*
X81309523Y-105961904D01*
X81309523Y-105676190D01*
X81357142Y-105580952D01*
X81404761Y-105533333D01*
X81500000Y-105485714D01*
X81642857Y-105485714D01*
X81738095Y-105533333D01*
X81785714Y-105580952D01*
X81833333Y-105676190D01*
X81833333Y-105961904D01*
X81785714Y-106057142D01*
X81738095Y-106104761D01*
X81642857Y-106152380D01*
X81500000Y-106152380D01*
X82261904Y-106152380D02*
X82261904Y-105152380D01*
X82357142Y-105771428D02*
X82642857Y-106152380D01*
X82642857Y-105485714D02*
X82261904Y-105866666D01*
%TO.C,U3*%
X108838095Y-105952380D02*
X108838095Y-106761904D01*
X108885714Y-106857142D01*
X108933333Y-106904761D01*
X109028571Y-106952380D01*
X109219047Y-106952380D01*
X109314285Y-106904761D01*
X109361904Y-106857142D01*
X109409523Y-106761904D01*
X109409523Y-105952380D01*
X109790476Y-105952380D02*
X110409523Y-105952380D01*
X110076190Y-106333333D01*
X110219047Y-106333333D01*
X110314285Y-106380952D01*
X110361904Y-106428571D01*
X110409523Y-106523809D01*
X110409523Y-106761904D01*
X110361904Y-106857142D01*
X110314285Y-106904761D01*
X110219047Y-106952380D01*
X109933333Y-106952380D01*
X109838095Y-106904761D01*
X109790476Y-106857142D01*
%TD*%
M02*
